<?xml version="1.0" encoding="utf-8"?>
<!-- Generator: Adobe Illustrator 24.2.3, SVG Export Plug-In . SVG Version: 6.00 Build 0)  -->
<svg version="1.1" id="Layer_1" xmlns="http://www.w3.org/2000/svg" xmlns:xlink="http://www.w3.org/1999/xlink" x="0px" y="0px"
	 viewBox="0 0 150 150" style="enable-background:new 0 0 150 150;" xml:space="preserve">
<style type="text/css">
	.st0{fill:#022C44;}
</style>
<g>
	<g>
		<path class="st0" d="M105,93.8c0.9,2,3.3,2.9,5.3,2s2.9-3.3,2-5.3s-3.3-2.9-5.3-2C105,89.3,104.1,91.7,105,93.8
			C105,93.7,105,93.7,105,93.8z"/>
		<path class="st0" d="M55.1,120.5c2-0.9,2.9-3.3,2-5.3s-3.3-2.9-5.3-2s-2.9,3.3-2,5.3S53.1,121.4,55.1,120.5L55.1,120.5z"/>
		<path class="st0" d="M111.3,97.3c-2.9,1.3-6.3,0-7.6-2.9c-1.1-2.5-0.4-5.4,1.8-7L84.4,60.3l6.3-2.8l-2.3-5.2l-7.6,3.4L64.9,35.2
			c1.9-9-3.8-17.9-12.8-19.9c-1.9-0.4-3.8-0.5-5.7-0.2L43.2,8l-8.3,3.7l3.1,7c-7.2,5.8-8.4,16.3-2.6,23.5c1.5,1.8,3.3,3.3,5.4,4.4
			l4.5,24.8l-7.6,3.4L40,80l6.3-2.8l6.2,34.1c3-0.6,5.9,1.4,6.4,4.4c0.5,2.5-0.8,5-3.2,6.1c-0.4,0.2-0.8,0.3-1.3,0.4l1.7,9.3l5,2.3
			l1.4,3.2l3.2-1.4L70,142l-1.7-7.5l1-0.4l-1.7-3.7l0,0L57.5,72.3l4.8-2.1l2,4.5l6.2-2.8l-2-4.5l4.8-2.1l36.5,46.3l0,0l1.7,3.7
			l0.5-0.2l4.2,6.3l-1.7-7.5l3.6-1.6l-1.4-3.2l1.6-5.3l-5.7-7.3C112.2,96.8,111.7,97.1,111.3,97.3z M44.8,23.4c4.6-2,10,0,12,4.6
			s0,10-4.6,12s-10,0-12-4.6l0,0C38.1,30.8,40.2,25.5,44.8,23.4z M66.1,62.1l-1.6-3.7l-6.2,2.8l1.6,3.6l-3.5,1.6l-3.3-18.7
			c0.7-0.2,1.5-0.5,2.2-0.8c0.9-0.4,1.7-0.9,2.5-1.4l11.8,15L66.1,62.1z"/>
	</g>
</g>
</svg>
