<?xml version="1.0" encoding="utf-8"?>
<!-- Generator: Adobe Illustrator 24.2.3, SVG Export Plug-In . SVG Version: 6.00 Build 0)  -->
<svg version="1.1" id="Layer_1" xmlns="http://www.w3.org/2000/svg" xmlns:xlink="http://www.w3.org/1999/xlink" x="0px" y="0px"
	 viewBox="0 0 150 150" style="enable-background:new 0 0 150 150;" xml:space="preserve">
<style type="text/css">
	.st0{fill:#022C44;}
</style>
<path class="st0" d="M112.5,67.5v-60h-75v30h-30v105h60v-30h15v30h60v-75H112.5z M37.5,127.5h-15v-15h15V127.5z M37.5,97.5h-15v-15
	h15V97.5z M37.5,67.5h-15v-15h15V67.5z M67.5,97.5h-15v-15h15V97.5z M67.5,67.5h-15v-15h15V67.5z M67.5,37.4h-15v-15h15V37.4z
	 M97.5,97.5h-15v-15h15V97.5z M97.5,67.5h-15v-15h15V67.5z M97.5,37.4h-15v-15h15V37.4z M127.5,127.4h-15v-15h15V127.4z M127.5,97.4
	h-15v-15h15V97.4z"/>
</svg>
