<?xml version="1.0" encoding="utf-8"?>
<!-- Generator: Adobe Illustrator 24.2.3, SVG Export Plug-In . SVG Version: 6.00 Build 0)  -->
<svg version="1.1" id="Layer_1" xmlns="http://www.w3.org/2000/svg" xmlns:xlink="http://www.w3.org/1999/xlink" x="0px" y="0px"
	 viewBox="0 0 150 150" style="enable-background:new 0 0 150 150;" xml:space="preserve">
<style type="text/css">
	.st0{fill:#022C44;}
</style>
<g>
	<path class="st0" d="M144.7,90.5c0-4.3-3.5-7.7-7.7-7.7h-15.5v15.5H137C141.2,98.2,144.7,94.7,144.7,90.5z"/>
	<path class="st0" d="M136.9,113.7h-15.5v15.5h15.5c4.3,0,7.7-3.5,7.7-7.7S141.2,113.7,136.9,113.7z"/>
	<path class="st0" d="M75,90.5H59.5v31H75c0,8.5,7,15.5,15.5,15.5h23.2V75H90.5C82,75,75,82,75,90.5z"/>
	<path class="st0" d="M20.8,82.7c0-8.5,7-15.5,15.5-15.5h11.6C62.8,67.3,75,55.1,75,40.2S62.8,13.1,47.9,13.1H20.8
		c-4.3,0-7.7,3.5-7.7,7.7s3.5,7.7,7.7,7.7h27.1c6.4,0,11.6,5.2,11.6,11.6s-5.2,11.6-11.6,11.6H36.3c-17.1,0-31,13.9-31,31
		s13.9,31,31,31h15.5V98.2H36.3C27.8,98.2,20.8,91.3,20.8,82.7z"/>
</g>
</svg>
