<?xml version="1.0" encoding="utf-8"?>
<!-- Generator: Adobe Illustrator 24.2.3, SVG Export Plug-In . SVG Version: 6.00 Build 0)  -->
<svg version="1.1" id="Layer_1" xmlns="http://www.w3.org/2000/svg" xmlns:xlink="http://www.w3.org/1999/xlink" x="0px" y="0px"
	 viewBox="0 0 150 150" style="enable-background:new 0 0 150 150;" xml:space="preserve">
<style type="text/css">
	.st0{fill:#022C44;}
</style>
<g>
	<g>
		<path class="st0" d="M108.4,71.3c-4.1,0-7.4,3.3-7.4,7.4v14.8H49V78.7c0-4.1-3.3-7.4-7.4-7.4s-7.4,3.3-7.4,7.4v26
			c0,2.1,1.6,3.7,3.7,3.7h74.2c2.1,0,3.7-1.6,3.7-3.7v-26C115.8,74.6,112.5,71.3,108.4,71.3z"/>
		<path class="st0" d="M60.2,78.7v3.7h29.7v-3.7c0-9.7,7.3-17.4,16.7-18.3v-7.6c0-6.2-5-11.1-11.1-11.1H54.6
			c-6.2,0-11.1,5-11.1,11.1v7.6C52.8,61.3,60.2,69.1,60.2,78.7z"/>
		<path class="st0" d="M134.4,0.8H15.6C7.4,0.8,0.8,7.4,0.8,15.6v118.8c0,8.2,6.7,14.8,14.8,14.8h118.8c8.2,0,14.8-6.7,14.8-14.8
			V15.6C149.2,7.4,142.6,0.8,134.4,0.8z M127,104.7c0,8.2-6.7,14.8-14.8,14.8H37.9c-8.2,0-14.8-6.7-14.8-14.8v-26
			c0-6.8,3.8-12.8,9.3-16v-10c0-12.3,9.9-22.3,22.3-22.3h40.8c12.3,0,22.3,9.9,22.3,22.3v10c5.5,3.2,9.3,9.1,9.3,16v26H127z"/>
	</g>
</g>
</svg>
