<?xml version="1.0" encoding="utf-8"?>
<!-- Generator: Adobe Illustrator 24.2.3, SVG Export Plug-In . SVG Version: 6.00 Build 0)  -->
<svg version="1.1" id="Layer_1" xmlns="http://www.w3.org/2000/svg" xmlns:xlink="http://www.w3.org/1999/xlink" x="0px" y="0px"
	 viewBox="0 0 150 150" style="enable-background:new 0 0 150 150;" xml:space="preserve">
<style type="text/css">
	.st0{fill:#022C44;}
</style>
<path class="st0" d="M21,116.9l9,9l11.4-11.5l-9-9L21,116.9z M68.6,141.9h12.8V123H68.6V141.9z M23.9,65.6H4.7v12.8h19.2
	C23.9,78.4,23.9,65.6,23.9,65.6z M94.2,38.8V8.1H55.8v30.7c-11.4,6.6-19.2,19-19.2,33.2c0,21.2,17.2,38.3,38.3,38.3
	s38.3-17.2,38.3-38.3C113.3,57.8,105.6,45.4,94.2,38.8z M126.1,65.6v12.8h19.2V65.6H126.1z M108.5,114.5l11.4,11.5l9-9l-11.5-11.4
	L108.5,114.5z"/>
</svg>
