<?xml version="1.0" encoding="utf-8"?>
<!-- Generator: Adobe Illustrator 24.2.3, SVG Export Plug-In . SVG Version: 6.00 Build 0)  -->
<svg version="1.1" id="Layer_1" xmlns="http://www.w3.org/2000/svg" xmlns:xlink="http://www.w3.org/1999/xlink" x="0px" y="0px"
	 viewBox="0 0 150 150" style="enable-background:new 0 0 150 150;" xml:space="preserve">
<style type="text/css">
	.st0{fill:#022C44;}
</style>
<path class="st0" d="M120.4,17.4c0,7.7-6.3,14-14,14s-14-6.3-14-14s6.3-14,14-14S120.4,9.7,120.4,17.4z M101.4,131.9l5.3,1.9
	c4.3,1.5,8.9,2.3,13.7,2.3c5.9,0,11.5-1.3,16.6-3.5l7.8,7.9c-7.3,3.8-15.6,6.1-24.4,6.1c-6,0-11.7-1-17.1-2.9L5.2,108l3.5-9.8
	l48.2,17.5l12-31L44,58.7c-6.2-6.6-4.7-17.2,3.1-21.8l24.3-14c7.7-4.5,17.6-0.7,20.3,7.7l2.3,7.5C97.1,48,104.3,56,113.7,60
	l3.6-11.2l10,3.2l-7.8,24.1C102.4,73.3,88.3,61.7,82,46L64.3,56.1l21.2,24.2L70,120.4l21.6,7.8l14.7-45c3.2,1.3,6.6,2.2,10.1,2.9
	L101.4,131.9z"/>
</svg>
