<?xml version="1.0" encoding="utf-8"?>
<!-- Generator: Adobe Illustrator 24.2.3, SVG Export Plug-In . SVG Version: 6.00 Build 0)  -->
<svg version="1.1" id="Layer_1" xmlns="http://www.w3.org/2000/svg" xmlns:xlink="http://www.w3.org/1999/xlink" x="0px" y="0px"
	 viewBox="0 0 150 150" style="enable-background:new 0 0 150 150;" xml:space="preserve">
<style type="text/css">
	.st0{fill:#022C44;}
</style>
<path class="st0" d="M146.1,53.7V39.5h-14.2V25.2c0-7.8-6.4-14.2-14.2-14.2H18.1c-7.8,0-14.2,6.4-14.2,14.2v99.5
	c0,7.8,6.4,14.2,14.2,14.2h99.5c7.8,0,14.2-6.4,14.2-14.2v-14.2H146V96.3h-14.2V82.1H146V67.9h-14.2V53.7H146.1z M117.7,124.8H18.1
	V25.2h99.5L117.7,124.8L117.7,124.8z M32.3,82.1h35.5v28.4H32.3V82.1z M75,39.5h28.4v21.3H75V39.5z M32.3,39.5h35.5V75H32.3V39.5z
	 M75,67.9h28.4v42.7H75V67.9z"/>
</svg>
