<?xml version="1.0" encoding="utf-8"?>
<!-- Generator: Adobe Illustrator 24.2.3, SVG Export Plug-In . SVG Version: 6.00 Build 0)  -->
<svg version="1.1" id="Layer_1" xmlns="http://www.w3.org/2000/svg" xmlns:xlink="http://www.w3.org/1999/xlink" x="0px" y="0px"
	 viewBox="0 0 137.6 131.8" style="enable-background:new 0 0 137.6 131.8;" xml:space="preserve">
<style type="text/css">
	.st0{fill:#022C44;}
</style>
<path class="st0" d="M121,71.1v8.1c0,0.7,0.6,1.3,1.3,1.3h15.4v9h-15.4c-0.7,0-1.3,0.6-1.3,1.3v8.1c0,0.7,0.6,1.3,1.3,1.3h15.4v8.9
	h-15.4c-0.7,0-1.3,0.6-1.3,1.3v8.1c0,0.7,0.6,1.3,1.3,1.3h15.4V132h-28.9V39l28.9,23.8v7h-15.4C121.5,69.8,121,70.4,121,71.1z
	 M23.3,59.1H0v10.8h9.8c0.7,0,1.3,0.5,1.3,1.2l0,0v8.1c0,0.7-0.6,1.2-1.3,1.2H0v9h9.8c0.7,0,1.3,0.6,1.3,1.3v8.1
	c0,0.7-0.6,1.2-1.3,1.2H0v8.9h9.8c0.7,0,1.3,0.6,1.3,1.3l0,0v8.1c0,0.7-0.6,1.3-1.3,1.3H0v12.2h23.3V59.1z M100.1,131.8H31.9V4.3
	c0-2.4,1.9-4.3,4.3-4.3h59.6c2.4,0,4.3,1.9,4.3,4.3l0,0L100.1,131.8L100.1,131.8z M59.8,94c0-1.4-1.1-2.5-2.5-2.5h-10
	c-1.4,0-2.5,1.1-2.6,2.5l0,0v10c0,1.4,1.1,2.6,2.6,2.6h10c1.4,0,2.6-1.1,2.6-2.6l0,0L59.8,94z M59.8,69.1c0-1.4-1.1-2.6-2.5-2.6l0,0
	h-10c-1.4,0-2.6,1.1-2.6,2.6v10c0,1.4,1.1,2.6,2.6,2.6h10c1.4,0,2.6-1.1,2.6-2.6L59.8,69.1L59.8,69.1z M59.8,44.3
	c0-1.4-1.1-2.6-2.6-2.6l0,0h-10c-1.4,0-2.6,1.1-2.6,2.6l0,0v10c0,1.4,1.1,2.6,2.6,2.6h10c1.4,0,2.6-1.1,2.6-2.6l0,0V44.3z
	 M59.8,19.4c0-1.4-1.1-2.5-2.5-2.5h-10c-1.4,0-2.5,1.1-2.6,2.5v10c0,1.4,1.1,2.6,2.5,2.6h10c1.4,0,2.6-1.1,2.6-2.5l0,0V19.4z
	 M87.3,94c0-1.4-1.2-2.5-2.6-2.5l0,0h-10c-1.4,0-2.5,1.1-2.6,2.5v10c0,1.4,1.1,2.6,2.6,2.6h10c1.4,0,2.6-1.1,2.6-2.6l0,0V94z
	 M87.3,69.1c0-1.4-1.2-2.6-2.6-2.6h-10c-1.4,0-2.6,1.1-2.6,2.6v10c0,1.4,1.1,2.6,2.6,2.6h10c1.4,0,2.6-1.1,2.6-2.6V69.1z M87.3,44.3
	c0-1.4-1.1-2.6-2.6-2.6h-10c-1.4,0-2.6,1.1-2.6,2.6v10c0,1.4,1.1,2.6,2.6,2.6h10c1.4,0,2.5-1.2,2.6-2.6V44.3z M87.3,19.4
	c0-1.4-1.2-2.5-2.6-2.5h-10c-1.4,0-2.5,1.1-2.6,2.5v10c0,1.4,1.1,2.5,2.6,2.6h10c1.4,0,2.6-1.1,2.6-2.6V19.4z"/>
</svg>
