<svg xmlns="http://www.w3.org/2000/svg" width="19.833" height="19.65" viewBox="0 0 19.833 19.65">
  <g id="ic-contact-chat" transform="translate(0.75 0.75)">
    <path id="Path_76" data-name="Path 76" d="M3.833,3H13a1.932,1.932,0,0,1,1.833,2.017v6.05A1.932,1.932,0,0,1,13,13.083H10.25L7.5,16.108,4.75,13.083H3.833A1.932,1.932,0,0,1,2,11.067V5.017A1.932,1.932,0,0,1,3.833,3Z" transform="translate(-2 -3)" fill="none" stroke="gold" stroke-linecap="round" stroke-linejoin="round" stroke-width="1.5"/>
    <path id="Path_77" data-name="Path 77" d="M15.333,8H19a1.932,1.932,0,0,1,1.833,2.017v6.05A1.932,1.932,0,0,1,19,18.083H17.167l-1.833,3.025-2.75-3.025H9.833A1.932,1.932,0,0,1,8,16.067H8" transform="translate(-2.5 -2.958)" fill="none" stroke="gold" stroke-linecap="round" stroke-linejoin="round" stroke-width="1.5"/>
  </g>
</svg>
