<svg xmlns="http://www.w3.org/2000/svg" width="17.333" height="17.175" viewBox="0 0 17.333 17.175">
  <g id="ic-contact-chat" transform="translate(0.75 0.75)">
    <path id="Path_76" data-name="Path 76" d="M3.583,3H11.5a1.668,1.668,0,0,1,1.583,1.742V9.967A1.668,1.668,0,0,1,11.5,11.708H9.125L6.75,14.321,4.375,11.708H3.583A1.668,1.668,0,0,1,2,9.967V4.742A1.668,1.668,0,0,1,3.583,3Z" transform="translate(-2 -3)" fill="rgba(0,0,0,0)" stroke="#022c43" stroke-linecap="round" stroke-linejoin="round" stroke-width="1.5"/>
    <path id="Path_77" data-name="Path 77" d="M14.333,8H17.5a1.668,1.668,0,0,1,1.583,1.742v5.225A1.668,1.668,0,0,1,17.5,16.708H15.917l-1.583,2.612-2.375-2.612H9.583A1.668,1.668,0,0,1,8,14.967H8" transform="translate(-3.25 -3.646)" fill="rgba(0,0,0,0)" stroke="#022c43" stroke-linecap="round" stroke-linejoin="round" stroke-width="1.5"/>
  </g>
</svg>
