<svg width="389" height="400" viewBox="0 0 389 400" fill="none" xmlns="http://www.w3.org/2000/svg">
<ellipse cx="194.5" cy="200" rx="194.5" ry="200" fill="#70EF6A"/>
<path d="M240 76.3399C240 73.6873 242.782 72.0005 244.844 73.6584C246.588 75.0713 248.16 76.7148 249.501 78.5889L292.938 139.096C293.918 140.48 292.852 142.267 291.15 142.267H243.604C242.648 142.267 241.732 141.888 241.056 141.212C240.38 140.536 240 139.619 240 138.663V76.3399Z" fill="black"/>
<path fill-rule="evenodd" clip-rule="evenodd" d="M227.167 62.6042C227.167 61.6483 226.787 60.7315 226.111 60.0556C225.435 59.3797 224.518 59 223.562 59H122.646C112.131 59 102.047 63.177 94.612 70.612C87.177 78.047 83 88.1311 83 98.6458V300.479C83 310.994 87.177 321.078 94.612 328.513C102.047 335.948 112.131 340.125 122.646 340.125H266.812C277.327 340.125 287.411 335.948 294.846 328.513C302.281 321.078 306.458 310.994 306.458 300.479V158.432C306.458 157.476 306.079 156.559 305.403 155.883C304.727 155.207 303.81 154.828 302.854 154.828H237.979C235.112 154.828 232.361 153.688 230.334 151.661C228.306 149.633 227.167 146.883 227.167 144.015V62.6042ZM237.979 203.167C240.847 203.167 243.597 204.306 245.625 206.334C247.652 208.361 248.792 211.112 248.792 213.979C248.792 216.847 247.652 219.597 245.625 221.625C243.597 223.652 240.847 224.792 237.979 224.792H151.479C148.612 224.792 145.861 223.652 143.834 221.625C141.806 219.597 140.667 216.847 140.667 213.979C140.667 211.112 141.806 208.361 143.834 206.334C145.861 204.306 148.612 203.167 151.479 203.167H237.979ZM237.979 260.833C240.847 260.833 243.597 261.973 245.625 264C247.652 266.028 248.792 268.778 248.792 271.646C248.792 274.513 247.652 277.264 245.625 279.291C243.597 281.319 240.847 282.458 237.979 282.458H151.479C148.612 282.458 145.861 281.319 143.834 279.291C141.806 277.264 140.667 274.513 140.667 271.646C140.667 268.778 141.806 266.028 143.834 264C145.861 261.973 148.612 260.833 151.479 260.833H237.979Z" fill="black"/>
</svg>
