<svg width="389" height="400" viewBox="0 0 389 400" fill="none" xmlns="http://www.w3.org/2000/svg">
<ellipse cx="194.5" cy="200" rx="194.5" ry="200" fill="#70EF6A"/>
<path d="M261.396 156.309C261.396 162.148 259.076 167.749 254.947 171.878C250.818 176.007 245.218 178.326 239.379 178.326C233.539 178.326 227.939 176.007 223.81 171.878C219.681 167.749 217.361 162.148 217.361 156.309C217.361 150.47 219.681 144.869 223.81 140.74C227.939 136.611 233.539 134.292 239.379 134.292C245.218 134.292 250.818 136.611 254.947 140.74C259.076 144.869 261.396 150.47 261.396 156.309Z" fill="black"/>
<path fill-rule="evenodd" clip-rule="evenodd" d="M194.716 82H195.971C221.39 82 241.305 82 256.849 84.0917C272.746 86.2273 285.296 90.6969 295.149 100.539C305.002 110.391 309.46 122.941 311.596 138.849C313.688 154.382 313.688 174.297 313.688 199.716V200.685C313.688 221.701 313.688 238.896 312.543 252.899C311.398 266.991 309.053 278.737 303.791 288.513C301.479 292.817 298.617 296.681 295.149 300.149C285.296 310.002 272.746 314.46 256.838 316.596C241.305 318.688 221.39 318.688 195.971 318.688H194.716C169.297 318.688 149.382 318.688 133.838 316.596C117.941 314.46 105.391 309.991 95.5387 300.149C86.8088 291.419 82.2952 280.553 79.9063 267.057C77.5394 253.813 77.1101 237.333 77.022 216.879C77 211.672 77 206.167 77 200.355V199.716C77 174.297 77 154.382 79.0917 138.838C81.2273 122.941 85.6969 110.391 95.5387 100.539C105.391 90.6859 117.941 86.2273 133.849 84.0917C149.382 82 169.297 82 194.716 82ZM136.04 100.451C121.971 102.344 113.483 105.955 107.219 112.219C100.944 118.494 97.3441 126.971 95.4506 141.051C93.5351 155.362 93.5131 174.165 93.5131 200.344V209.635L104.533 199.98C109.368 195.751 115.63 193.517 122.05 193.732C128.471 193.946 134.569 196.593 139.111 201.136L186.339 248.364C190.003 252.028 194.843 254.282 200.006 254.729C205.17 255.176 210.325 253.787 214.565 250.808L217.846 248.496C223.963 244.197 231.358 242.102 238.821 242.552C246.284 243.002 253.373 245.971 258.93 250.973L290.085 279.012C293.233 272.429 295.094 263.776 296.085 251.567C297.163 238.302 297.174 221.767 297.174 200.344C297.174 174.165 297.152 155.362 295.237 141.051C293.343 126.971 289.733 118.483 283.469 112.208C277.194 105.944 268.717 102.344 254.637 100.451C240.325 98.5351 221.522 98.5131 195.344 98.5131C169.165 98.5131 150.351 98.5351 136.04 100.451Z" fill="black"/>
</svg>
