<svg xmlns="http://www.w3.org/2000/svg" width="18.762" height="18.759" viewBox="0 0 18.762 18.759">
  <g id="telephone-2" transform="translate(0.249 5.25)">
    <path id="Path_1428" data-name="Path 1428" d="M4.6,12.137a19.371,19.371,0,0,0,6.443,5.047,10.028,10.028,0,0,0,3.606,1.067c.087,0,.17.008.257.008a2.986,2.986,0,0,0,2.315-1,.083.083,0,0,0,.015-.019,9.749,9.749,0,0,1,.73-.757c.178-.17.359-.348.533-.53a1.827,1.827,0,0,0-.008-2.72l-2.274-2.274a1.84,1.84,0,0,0-1.332-.613,1.9,1.9,0,0,0-1.347.609l-1.354,1.354c-.125-.072-.253-.136-.375-.2a4.678,4.678,0,0,1-.416-.227A14.335,14.335,0,0,1,7.969,8.774,8.255,8.255,0,0,1,6.811,6.927c.356-.322.689-.658,1.01-.987.114-.117.231-.235.348-.352A1.94,1.94,0,0,0,8.8,4.226a1.924,1.924,0,0,0-.628-1.362L7.042,1.737c-.132-.132-.257-.261-.386-.393-.25-.257-.511-.522-.768-.76A1.886,1.886,0,0,0,4.556,0,1.942,1.942,0,0,0,3.209.586L1.794,2A2.907,2.907,0,0,0,.928,3.863,7,7,0,0,0,1.454,6.89,17.609,17.609,0,0,0,4.6,12.137ZM1.851,3.942a2,2,0,0,1,.6-1.286L3.86,1.249a1.019,1.019,0,0,1,.7-.322.967.967,0,0,1,.681.329c.253.235.492.48.749.742.129.132.261.265.393.4L7.507,3.526a1.027,1.027,0,0,1,.356.708,1.027,1.027,0,0,1-.356.708c-.117.117-.235.238-.352.356-.352.356-.681.692-1.044,1.014l-.019.019a.74.74,0,0,0-.189.84c0,.011.008.019.011.03A8.9,8.9,0,0,0,7.242,9.36a15.13,15.13,0,0,0,3.647,3.322,5.416,5.416,0,0,0,.5.272,4.681,4.681,0,0,1,.416.227l.042.023a.791.791,0,0,0,.367.095.8.8,0,0,0,.564-.257l1.415-1.415a1,1,0,0,1,.692-.337.95.95,0,0,1,.67.337L17.836,13.9a.912.912,0,0,1-.011,1.426c-.159.17-.325.333-.5.5a10.9,10.9,0,0,0-.791.821,2.077,2.077,0,0,1-1.623.689c-.064,0-.132,0-.2-.008a9.111,9.111,0,0,1-3.261-.976,18.4,18.4,0,0,1-6.133-4.8A16.855,16.855,0,0,1,2.328,6.579,6.1,6.1,0,0,1,1.851,3.942Z" transform="translate(-0.912 -5)" fill="#022c43" stroke="#022c43" stroke-width="0.5"/>
  </g>
</svg>
