<svg xmlns="http://www.w3.org/2000/svg" xmlns:xlink="http://www.w3.org/1999/xlink" width="63" height="75.6" viewBox="0 0 63 75.6">
  <defs>
    <filter id="phone3" x="0" y="0" width="63" height="75.6" filterUnits="userSpaceOnUse">
      <feOffset dy="3" input="SourceAlpha"/>
      <feGaussianBlur stdDeviation="3" result="blur"/>
      <feFlood flood-opacity="0.161"/>
      <feComposite operator="in" in2="blur"/>
      <feComposite in="SourceGraphic"/>
    </filter>
  </defs>
  <g transform="matrix(1, 0, 0, 1, 0, 0)" filter="url(#phone3)">
    <path id="phone3-2" data-name="phone3" d="M44.4,57.6H6.6A3.6,3.6,0,0,1,3,54V10.8A3.6,3.6,0,0,1,6.6,7.2V50.4A3.6,3.6,0,0,0,10.2,54h7.2A3.6,3.6,0,0,0,21,50.4V7.2H44.4A3.6,3.6,0,0,1,48,10.8V54A3.6,3.6,0,0,1,44.4,57.6Zm-9-5.4H39V48.6H35.4Zm0-5.4H39V43.2H35.4Zm0-5.4H39V37.8H35.4Zm0-5.4H39V32.4H35.4ZM30,52.2h3.6V48.6H30Zm0-5.4h3.6V43.2H30Zm0-5.4h3.6V37.8H30ZM30,36h3.6V32.4H30ZM44.4,12.6a1.8,1.8,0,0,0-1.8-1.8H26.4a1.8,1.8,0,0,0-1.8,1.8v7.2a1.8,1.8,0,0,0,1.8,1.8H42.6a1.8,1.8,0,0,0,1.8-1.8Zm0,19.8H40.8V36h3.6Zm0,5.4H40.8v3.6h3.6Zm0,5.4H40.8v3.6h3.6Zm0,5.4H40.8v3.6h3.6Zm-27,3.6H10.2a1.8,1.8,0,0,1-1.8-1.8V5.4a1.8,1.8,0,0,1,1.8-1.8h3.488V0H15.6V3.6h1.8a1.8,1.8,0,0,1,1.8,1.8v45A1.8,1.8,0,0,1,17.4,52.2Z" transform="translate(6 6)" fill="#76766b" opacity="0.53"/>
  </g>
</svg>
