<svg xmlns="http://www.w3.org/2000/svg" width="21.896" height="21.896" viewBox="0 0 21.896 21.896">
  <g id="share" transform="translate(0)">
    <path id="Path_10" data-name="Path 10" d="M19.391,103.586H2.513A2.511,2.511,0,0,1,0,101.077V87.849A2.511,2.511,0,0,1,2.513,85.34H5.706a.684.684,0,1,1,0,1.368H2.513a1.142,1.142,0,0,0-1.14,1.14v13.229a1.142,1.142,0,0,0,1.14,1.14H19.391a1.142,1.142,0,0,0,1.14-1.14V93.322a.684.684,0,0,1,1.368,0v7.755A2.511,2.511,0,0,1,19.391,103.586Zm0,0" transform="translate(-0.004 -81.69)"/>
    <path id="Path_11" data-name="Path 11" d="M128.687,14.586a.6.6,0,0,1-.15-.018.675.675,0,0,1-.533-.654V12.545a8.9,8.9,0,0,1,8.9-8.9h.228V.685A.684.684,0,0,1,138.3.21l5.93,6.158a.683.683,0,0,1,0,.949l-5.93,6.158A.684.684,0,0,1,137.127,13V10.036h-1.084a7.484,7.484,0,0,0-6.732,4.161.7.7,0,0,1-.624.389ZM136.9,5.018a7.539,7.539,0,0,0-7.469,6.587,8.846,8.846,0,0,1,6.613-2.938h1.768a.684.684,0,0,1,.684.684V11.3l4.3-4.461-4.3-4.461V4.334a.684.684,0,0,1-.684.684Zm0,0" transform="translate(-122.53 0)"/>
  </g>
</svg>
